<?xml version="1.0" encoding="UTF-8"?>
<svg width="173px" height="31px" viewBox="0 0 173 31" version="1.1" xmlns="http://www.w3.org/2000/svg" xmlns:xlink="http://www.w3.org/1999/xlink">
        <path d="M21.438,27.22 C23.0050857,27.6738135 24.6886181,27.4815127 26.113,26.686 C27.5414234,25.8985546 28.5954146,24.5723334 29.04,23.003 C29.4930806,21.4361839 29.3008066,19.7532462 28.506,18.329 L23.955,10.24 C23.8175777,11.2872799 23.4655746,12.2949483 22.921,13.2 L22.037,14.674 L21.881,14.934 L21.875,14.932 C21.4,15.692 20.783,16.7 20.497,17.111 C20.093,17.688 19.61,18.193 19.099,18.676 C18.803,18.954 18.486,19.205 18.173,19.459 C17.7858198,19.7697195 17.3668156,20.0385526 16.923,20.261 C16.883,20.281 16.844,20.231 16.873,20.198 L16.875,20.197 C17.329,19.68 17.758,19.142 18.149,18.577 C18.529,18.027 18.918,17.481 19.14,16.841 C19.295,16.394 19.401,15.935 19.48,15.468 C19.567,14.948 19.634,14.428 19.656,13.901 C19.659,13.834 19.666,13.56 19.663,13.493 C19.656,13.348 19.727,13.426 19.793,13.525 C20.019,13.856 20.148,14.085 20.224,14.235 C20.252,14.29 20.294,14.405 20.349,14.458 L21.585,12.398 C22.4280111,11.0013598 22.6771948,9.3254916 22.277,7.744 C21.885956,6.16061663 20.8777091,4.79948335 19.477,3.964 C18.0803598,3.1209889 16.4044916,2.87180523 14.823,3.272 C13.2395425,3.66349023 11.8784533,4.67206457 11.043,6.073 L6.3,14.085 C7.25488913,13.6997349 8.27747107,13.5103175 9.307,13.528 L11.026,13.555 L11.329,13.561 L11.33,13.567 C12.225,13.597 13.407,13.627 13.906,13.669 C14.608,13.729 15.287,13.894 15.961,14.095 C16.35,14.211 16.725,14.36 17.102,14.503 C17.567,14.68 18.006,14.915 18.422,15.184 C18.46,15.209 18.437,15.268 18.392,15.259 C17.7175452,15.1223042 17.0357356,15.0248074 16.35,14.967 C15.685,14.914 15.017,14.849 14.352,14.977 C13.888,15.067 13.437,15.206 12.993,15.371 C12.5,15.555 12.016,15.759 11.549,16.003 C11.489,16.035 11.249,16.165 11.192,16.201 C11.07,16.281 11.102,16.181 11.154,16.072 C11.328,15.712 11.463,15.485 11.554,15.344 C11.587,15.292 11.665,15.199 11.684,15.124 L9.282,15.086 C7.65121178,15.0555951 6.0759627,15.6784936 4.907,16.816 C4.647,17.068 4.413,17.339 4.205,17.625 L3.867,18.195 L3.844,18.182 C3.334,19.072 3.054,20.08 3.037,21.134 C3.00679046,22.765623 3.63086188,24.3414664 4.77,25.51 C5.90170261,26.6851776 7.45664041,27.3585758 9.088,27.38 L18.459,27.44 C17.6126106,26.7949048 16.9094278,25.9810515 16.394,25.05 L15.56,23.546 L15.413,23.281 L15.417,23.277 C14.997,22.486 14.432,21.447 14.22,20.993 C13.922,20.355 13.726,19.684 13.564,18.999 C13.471,18.605 13.413,18.206 13.349,17.807 C13.2738348,17.3161424 13.2503731,16.8187535 13.279,16.323 C13.282,16.278 13.346,16.27 13.359,16.313 L13.36,16.313 C13.58,16.965 13.832,17.606 14.126,18.227 C14.411,18.831 14.689,19.441 15.132,19.954 C15.442,20.312 15.787,20.634 16.152,20.934 C16.557,21.271 16.975,21.589 17.42,21.871 C17.477,21.907 17.71,22.051 17.77,22.081 C17.899,22.148 17.796,22.171 17.677,22.179 C17.277,22.209 17.014,22.204 16.846,22.196 C16.785,22.193 16.664,22.172 16.591,22.193 L17.756,24.293 C18.5435022,25.7215825 19.8696468,26.7758729 21.439,27.221 L21.438,27.22 Z M30.574,16.292 C34.106,22.409 29.691,30.056 22.626,30.056 L9.69,30.056 C2.626,30.056 -1.789,22.409 1.743,16.292 L8.211,5.089 C9.977,2.029 13.068,0.5 16.158,0.5 C19.248,0.5 22.339,2.03 24.105,5.089 L30.574,16.292 Z M47.324,16.338 L47.324,20.12 L45.31,20.12 L45.31,10.26 L55.295,10.26 L55.295,11.974 L47.342,11.974 L47.342,14.643 L53.775,14.643 L53.775,16.339 L47.324,16.338 Z M61.614,20.12 L61.614,10.259 L63.63,10.259 L63.63,20.119 L61.614,20.12 Z M80.554,12.203 C79.174,11.796 77.69,11.708 76.118,11.708 C74.845,11.708 72.672,11.761 72.672,12.874 C72.672,15.366 81.384,12.521 81.384,17.204 C81.384,19.837 78.38,20.297 75.799,20.297 C73.926,20.297 72,20.103 70.533,19.784 L70.603,18.07 C72.123,18.459 74.033,18.671 75.835,18.671 C77.585,18.671 79.475,18.441 79.475,17.293 C79.475,14.642 70.763,17.54 70.763,12.998 C70.763,10.383 73.873,10.082 76.083,10.082 C78.009,10.082 79.476,10.277 80.624,10.595 L80.554,12.203 Z M97.986,20.12 L97.986,15.826 L90.139,15.826 L90.139,20.12 L88.125,20.12 L88.125,10.26 L90.139,10.26 L90.139,14.094 L97.986,14.094 L97.986,10.26 L100,10.26 L100,20.121 L97.986,20.12 Z M114.858,16.568 L114.858,14.872 L120.318,14.872 C120.354,15.084 120.372,15.331 120.372,15.542 C120.283,18.424 117.474,20.297 113.851,20.297 C109.574,20.297 106.8,18.158 106.8,15.154 C106.8,12.132 109.645,10.082 113.78,10.082 C115.583,10.082 117.438,10.347 118.905,11.019 L118.905,12.839 C117.88,12.344 116.448,11.796 114.045,11.796 C111.182,11.796 108.938,12.91 108.938,15.154 C108.938,17.239 111.005,18.582 113.833,18.582 C115.936,18.582 117.703,17.946 118.127,16.568 L114.858,16.568 Z M127.008,20.12 L127.008,10.26 L136.993,10.26 L136.993,11.938 L129.041,11.938 L129.041,14.2 L135.615,14.2 L135.615,15.896 L129.041,15.896 L129.041,18.423 L136.993,18.423 L136.993,20.12 L127.008,20.12 Z M147.281,16.427 L151.257,16.427 L149.278,13.299 L147.281,16.427 Z M152.353,18.141 L146.203,18.141 L144.948,20.121 L142.704,20.121 L149.278,10.082 L155.852,20.12 L153.608,20.12 L152.353,18.141 Z M163.899,11.956 L163.899,15.03 L168.176,15.03 C169.66,15.03 170.208,14.324 170.208,13.493 C170.208,12.68 169.66,11.956 168.176,11.956 L163.899,11.956 Z M170.137,20.12 L167.716,16.727 L163.899,16.727 L163.899,20.12 L161.884,20.12 L161.884,10.26 L168.653,10.26 C171.198,10.26 172.311,11.974 172.311,13.494 C172.311,14.714 171.516,15.933 169.872,16.463 L172.452,20.121 L170.137,20.12 Z" id="fish-gear" fill="#09374B"></path>
</svg>
